<svg width="4" height="5" viewBox="0 0 4 5" fill="none" xmlns="http://www.w3.org/2000/svg">
<circle cx="2" cy="2" r="2" fill="white"/>
<path d="M1.04002 3.37988C0.877801 3.37988 0.738915 3.36321 0.623362 3.32988C0.507809 3.29877 0.413366 3.25543 0.340035 3.19988C0.266703 3.14433 0.213371 3.07988 0.180038 3.00655C0.144483 2.93322 0.126706 2.85433 0.126706 2.76989C0.126706 2.68545 0.147816 2.60545 0.190038 2.52989C0.232259 2.45656 0.292258 2.39212 0.370034 2.33656C0.445588 2.28323 0.537808 2.2399 0.646695 2.20657C0.755582 2.17546 0.87669 2.1599 1.01002 2.1599H1.44334L1.44334 1.72324C1.44334 1.6388 1.44112 1.57102 1.43668 1.51991C1.43223 1.47103 1.42668 1.43436 1.42001 1.40992C1.41112 1.38103 1.40223 1.36103 1.39335 1.34992V1.33325H1.93333V1.34992C1.92667 1.36103 1.91889 1.38103 1.91 1.40992C1.90334 1.43436 1.89778 1.47103 1.89334 1.51991C1.88667 1.57102 1.88334 1.6388 1.88334 1.72324V2.98655C1.88334 3.07099 1.88667 3.13766 1.89334 3.18655C1.89778 3.23766 1.90334 3.27543 1.91 3.29988C1.91889 3.32877 1.92667 3.34877 1.93333 3.35988L1.93333 3.37654L1.04002 3.37988ZM1.27335 2.1999C1.14224 2.1999 1.03224 2.21434 0.943355 2.24323C0.854468 2.27212 0.783359 2.31212 0.730027 2.36323C0.674472 2.41434 0.635584 2.47434 0.613362 2.54323C0.588918 2.61211 0.576696 2.68767 0.576696 2.76989C0.576696 2.85211 0.586696 2.92766 0.606696 2.99655C0.626695 3.06544 0.658917 3.12433 0.70336 3.17321C0.747804 3.22432 0.806692 3.26432 0.880023 3.29321C0.951133 3.3221 1.03891 3.33654 1.14335 3.33654H1.40668C1.41335 3.31877 1.42112 3.28432 1.43001 3.23321C1.4389 3.1821 1.44334 3.09988 1.44334 2.98655L1.44334 2.1999H1.27335Z" fill="black"/>
<path d="M2.95998 0.953376C3.1222 0.953376 3.26108 0.970042 3.37664 1.00337C3.49219 1.03449 3.58663 1.07782 3.65997 1.13337C3.7333 1.18893 3.78663 1.25337 3.81996 1.3267C3.85552 1.40003 3.87329 1.47892 3.87329 1.56336C3.87329 1.64781 3.85218 1.7278 3.80996 1.80336C3.76774 1.87669 3.70774 1.94113 3.62997 1.99669C3.55441 2.05002 3.46219 2.09335 3.35331 2.12668C3.24442 2.1578 3.12331 2.17335 2.98998 2.17335H2.55666V2.61001C2.55666 2.69445 2.55888 2.76223 2.56332 2.81334C2.56777 2.86223 2.57332 2.89889 2.57999 2.92333C2.58888 2.95222 2.59777 2.97222 2.60665 2.98333V3H2.06667V2.98333C2.07333 2.97222 2.08111 2.95222 2.09 2.92333C2.09666 2.89889 2.10222 2.86223 2.10666 2.81334C2.11333 2.76223 2.11666 2.69445 2.11666 2.61001V1.3467C2.11666 1.26226 2.11333 1.19559 2.10666 1.14671C2.10222 1.0956 2.09666 1.05782 2.09 1.03337C2.08111 1.00449 2.07333 0.984486 2.06667 0.973376V0.956709L2.95998 0.953376ZM2.72665 2.13335C2.85776 2.13335 2.96776 2.11891 3.05664 2.09002C3.14553 2.06113 3.21664 2.02113 3.26997 1.97002C3.32553 1.91891 3.36442 1.85891 3.38664 1.79003C3.41108 1.72114 3.4233 1.64558 3.4233 1.56336C3.4233 1.48114 3.4133 1.40559 3.3933 1.3367C3.3733 1.26781 3.34108 1.20893 3.29664 1.16004C3.2522 1.10893 3.19331 1.06893 3.11998 1.04004C3.04887 1.01115 2.96109 0.996709 2.85665 0.996709H2.59332C2.58665 1.01449 2.57888 1.04893 2.56999 1.10004C2.5611 1.15115 2.55666 1.23337 2.55666 1.3467V2.13335H2.72665Z" fill="black"/>
</svg>
