<svg width="165" height="44" viewBox="0 0 165 44" fill="none" xmlns="http://www.w3.org/2000/svg">
<path d="M0.895996 43.024V42.064C2.176 41.936 3.264 41.552 4.16 40.912C5.056 40.304 5.744 39.248 6.224 37.744C6.704 36.24 6.944 34.128 6.944 31.408V5.10399C6.944 3.91999 6.848 3.05599 6.656 2.51199C6.496 1.93599 6.16 1.55199 5.648 1.35999C5.136 1.13599 4.368 1.00799 3.344 0.97599V0.0159912C4.144 0.0479908 5.184 0.0799904 6.464 0.11199C7.776 0.14399 9.152 0.159989 10.592 0.159989C12.032 0.159989 13.424 0.14399 14.768 0.11199C16.144 0.0799904 17.28 0.0479908 18.176 0.0159912V0.97599C17.184 1.00799 16.416 1.13599 15.872 1.35999C15.36 1.55199 15.008 1.93599 14.816 2.51199C14.656 3.05599 14.576 3.91999 14.576 5.10399V22.672C14.576 23.984 14.576 25.408 14.576 26.944C14.576 28.448 14.512 29.92 14.384 31.36C14.288 32.8 14.08 34.08 13.76 35.2C13.12 37.408 11.728 39.264 9.584 40.768C7.472 42.272 4.576 43.024 0.895996 43.024Z" fill="#141414"/>
<path d="M43.8372 8.65599V28.768C43.8372 30.208 44.0612 31.28 44.5092 31.984C44.9572 32.656 45.7572 32.992 46.9092 32.992V34C45.9172 33.904 44.9252 33.856 43.9333 33.856C42.5892 33.856 41.3412 33.904 40.1892 34C39.0372 34.096 37.9492 34.272 36.9252 34.528V30.208C36.1572 31.808 35.0852 32.96 33.7092 33.664C32.3652 34.336 30.8612 34.672 29.1972 34.672C27.8532 34.672 26.7652 34.496 25.9332 34.144C25.1012 33.792 24.4452 33.344 23.9652 32.8C23.4212 32.192 23.0372 31.392 22.8132 30.4C22.5892 29.408 22.4772 28.128 22.4772 26.56V14.416C22.4772 12.976 22.2532 11.92 21.8052 11.248C21.3892 10.544 20.5892 10.192 19.4052 10.192V9.18399C20.4292 9.27999 21.4212 9.32799 22.3812 9.32799C23.7252 9.32799 24.9732 9.27999 26.1252 9.18399C27.3092 9.05599 28.3972 8.87999 29.3892 8.65599V28.528C29.3892 29.328 29.4532 30.032 29.5812 30.64C29.7412 31.248 30.0292 31.728 30.4452 32.08C30.8612 32.4 31.4692 32.56 32.2692 32.56C33.1332 32.56 33.9012 32.32 34.5732 31.84C35.2772 31.36 35.8372 30.704 36.2532 29.872C36.7012 29.008 36.9252 28.048 36.9252 26.992V14.416C36.9252 12.976 36.7012 11.92 36.2532 11.248C35.8372 10.544 35.0372 10.192 33.8532 10.192V9.18399C34.8773 9.27999 35.8692 9.32799 36.8292 9.32799C38.1732 9.32799 39.4212 9.27999 40.5732 9.18399C41.7572 9.05599 42.8452 8.87999 43.8372 8.65599Z" fill="#141414"/>
<path d="M58.5466 8.51199C59.8906 8.51199 61.0586 8.68799 62.0506 9.03999C63.0746 9.35999 63.8106 9.67999 64.2586 9.99999C65.3466 10.736 66.0186 10.256 66.2746 8.55999H67.2826C67.2186 9.45599 67.1706 10.56 67.1386 11.872C67.1066 13.152 67.0906 14.864 67.0906 17.008H66.0826C65.9226 15.824 65.6186 14.656 65.1706 13.504C64.7226 12.352 64.0666 11.408 63.2026 10.672C62.3706 9.93599 61.2826 9.56799 59.9386 9.56799C59.0106 9.56799 58.2266 9.83999 57.5866 10.384C56.9466 10.896 56.6266 11.648 56.6266 12.64C56.6266 13.6 56.9146 14.448 57.4906 15.184C58.0666 15.888 58.8026 16.576 59.6986 17.248C60.6266 17.888 61.5866 18.576 62.5786 19.312C63.6346 20.112 64.5946 20.912 65.4586 21.712C66.3226 22.48 67.0106 23.328 67.5226 24.256C68.0346 25.184 68.2906 26.288 68.2906 27.568C68.2906 29.008 67.8746 30.272 67.0426 31.36C66.2106 32.416 65.1066 33.232 63.7306 33.808C62.3866 34.384 60.8826 34.672 59.2186 34.672C58.2586 34.672 57.3946 34.576 56.6266 34.384C55.8906 34.192 55.2506 33.952 54.7066 33.664C54.2906 33.472 53.8906 33.296 53.5066 33.136C53.1546 32.944 52.8186 32.784 52.4986 32.656C52.1786 32.56 51.8906 32.672 51.6346 32.992C51.4106 33.312 51.2346 33.76 51.1066 34.336H50.0986C50.1626 33.312 50.2106 32.064 50.2426 30.592C50.2746 29.12 50.2906 27.168 50.2906 24.736H51.2986C51.4906 26.464 51.8426 28 52.3546 29.344C52.8666 30.656 53.5546 31.696 54.4186 32.464C55.3146 33.2 56.4346 33.568 57.7786 33.568C58.3226 33.568 58.8506 33.456 59.3626 33.232C59.8746 33.008 60.2906 32.64 60.6106 32.128C60.9626 31.616 61.1386 30.96 61.1386 30.16C61.1386 28.752 60.6746 27.584 59.7466 26.656C58.8506 25.728 57.6986 24.72 56.2906 23.632C55.2666 22.8 54.2906 21.984 53.3626 21.184C52.4666 20.352 51.7306 19.456 51.1546 18.496C50.5786 17.504 50.2906 16.384 50.2906 15.136C50.2906 13.696 50.6746 12.48 51.4426 11.488C52.2106 10.496 53.2186 9.75999 54.4666 9.27999C55.7466 8.76799 57.1066 8.51199 58.5466 8.51199Z" fill="#141414"/>
<path d="M80.7185 8.51199C82.0625 8.51199 83.2305 8.68799 84.2225 9.03999C85.2465 9.35999 85.9825 9.67999 86.4305 9.99999C87.5185 10.736 88.1905 10.256 88.4465 8.55999H89.4545C89.3905 9.45599 89.3425 10.56 89.3105 11.872C89.2785 13.152 89.2625 14.864 89.2625 17.008H88.2545C88.0945 15.824 87.7905 14.656 87.3425 13.504C86.8945 12.352 86.2385 11.408 85.3745 10.672C84.5425 9.93599 83.4545 9.56799 82.1105 9.56799C81.1825 9.56799 80.3985 9.83999 79.7585 10.384C79.1185 10.896 78.7985 11.648 78.7985 12.64C78.7985 13.6 79.0865 14.448 79.6625 15.184C80.2385 15.888 80.9745 16.576 81.8705 17.248C82.7985 17.888 83.7585 18.576 84.7505 19.312C85.8065 20.112 86.7665 20.912 87.6305 21.712C88.4945 22.48 89.1825 23.328 89.6945 24.256C90.2065 25.184 90.4625 26.288 90.4625 27.568C90.4625 29.008 90.0465 30.272 89.2145 31.36C88.3825 32.416 87.2785 33.232 85.9025 33.808C84.5585 34.384 83.0545 34.672 81.3905 34.672C80.4305 34.672 79.5665 34.576 78.7985 34.384C78.0625 34.192 77.4225 33.952 76.8785 33.664C76.4625 33.472 76.0625 33.296 75.6785 33.136C75.3265 32.944 74.9905 32.784 74.6705 32.656C74.3505 32.56 74.0625 32.672 73.8065 32.992C73.5825 33.312 73.4065 33.76 73.2785 34.336H72.2705C72.3345 33.312 72.3825 32.064 72.4145 30.592C72.4465 29.12 72.4625 27.168 72.4625 24.736H73.4705C73.6625 26.464 74.0145 28 74.5265 29.344C75.0385 30.656 75.7265 31.696 76.5905 32.464C77.4865 33.2 78.6065 33.568 79.9505 33.568C80.4945 33.568 81.0225 33.456 81.5345 33.232C82.0465 33.008 82.4625 32.64 82.7825 32.128C83.1345 31.616 83.3105 30.96 83.3105 30.16C83.3105 28.752 82.8465 27.584 81.9185 26.656C81.0225 25.728 79.8705 24.72 78.4625 23.632C77.4385 22.8 76.4625 21.984 75.5345 21.184C74.6385 20.352 73.9025 19.456 73.3265 18.496C72.7505 17.504 72.4625 16.384 72.4625 15.136C72.4625 13.696 72.8465 12.48 73.6145 11.488C74.3825 10.496 75.3905 9.75999 76.6385 9.27999C77.9185 8.76799 79.2785 8.51199 80.7185 8.51199Z" fill="#141414"/>
<path d="M100.01 34.336C98.5704 34.336 97.3704 34.064 96.4104 33.52C95.4504 32.976 94.7464 32.256 94.2984 31.36C93.8504 30.432 93.6264 29.424 93.6264 28.336C93.6264 26.96 93.9304 25.84 94.5384 24.976C95.1784 24.112 95.9944 23.408 96.9864 22.864C97.9784 22.32 99.0184 21.872 100.106 21.52C101.226 21.168 102.282 20.832 103.274 20.512C104.298 20.16 105.114 19.76 105.722 19.312C106.362 18.832 106.682 18.224 106.682 17.488V13.744C106.682 12.912 106.538 12.176 106.25 11.536C105.994 10.864 105.578 10.352 105.002 9.99999C104.458 9.64799 103.738 9.47199 102.842 9.47199C102.202 9.47199 101.562 9.56799 100.922 9.75999C100.282 9.91999 99.7544 10.208 99.3384 10.624C100.234 10.944 100.922 11.44 101.402 12.112C101.914 12.752 102.17 13.488 102.17 14.32C102.17 15.408 101.786 16.272 101.018 16.912C100.282 17.552 99.4024 17.872 98.3784 17.872C97.2264 17.872 96.3464 17.52 95.7384 16.816C95.1624 16.08 94.8744 15.2 94.8744 14.176C94.8744 13.248 95.0984 12.48 95.5464 11.872C96.0264 11.264 96.6824 10.688 97.5144 10.144C98.4104 9.63199 99.4824 9.23199 100.73 8.94399C102.01 8.65599 103.386 8.51199 104.858 8.51199C106.33 8.51199 107.658 8.67199 108.842 8.99199C110.026 9.27999 111.018 9.82399 111.818 10.624C112.554 11.36 113.034 12.272 113.258 13.36C113.482 14.416 113.594 15.76 113.594 17.392V30.448C113.594 31.248 113.674 31.808 113.834 32.128C113.994 32.416 114.266 32.56 114.65 32.56C114.938 32.56 115.21 32.48 115.466 32.32C115.754 32.16 116.058 31.968 116.378 31.744L116.858 32.56C116.186 33.136 115.402 33.584 114.506 33.904C113.642 34.192 112.666 34.336 111.578 34.336C110.394 34.336 109.45 34.176 108.746 33.856C108.042 33.504 107.53 33.04 107.21 32.464C106.922 31.888 106.778 31.216 106.778 30.448C106.01 31.664 105.082 32.624 103.994 33.328C102.906 34 101.578 34.336 100.01 34.336ZM103.418 31.264C104.058 31.264 104.634 31.12 105.146 30.832C105.69 30.512 106.202 30 106.682 29.296V19.456C106.394 19.936 105.994 20.368 105.482 20.752C104.97 21.136 104.426 21.536 103.85 21.952C103.274 22.336 102.714 22.768 102.17 23.248C101.658 23.728 101.242 24.32 100.922 25.024C100.602 25.728 100.442 26.576 100.442 27.568C100.442 28.816 100.714 29.744 101.258 30.352C101.802 30.96 102.522 31.264 103.418 31.264Z" fill="#141414"/>
<path d="M134.742 8.51199C135.766 8.51199 136.598 8.73599 137.238 9.18399C137.878 9.59999 138.342 10.144 138.63 10.816C138.95 11.488 139.11 12.192 139.11 12.928C139.11 14.112 138.758 15.088 138.054 15.856C137.382 16.592 136.486 16.96 135.366 16.96C134.246 16.96 133.366 16.688 132.726 16.144C132.118 15.568 131.814 14.816 131.814 13.888C131.814 12.992 132.006 12.256 132.39 11.68C132.806 11.072 133.318 10.56 133.926 10.144C133.478 10.016 133.03 10.032 132.582 10.192C131.974 10.288 131.398 10.544 130.854 10.96C130.31 11.344 129.846 11.84 129.462 12.448C129.078 13.024 128.774 13.664 128.55 14.368C128.326 15.04 128.214 15.696 128.214 16.336V29.056C128.214 30.592 128.582 31.632 129.318 32.176C130.086 32.72 131.222 32.992 132.726 32.992V34C131.99 33.968 130.918 33.936 129.51 33.904C128.102 33.84 126.63 33.808 125.094 33.808C123.814 33.808 122.518 33.84 121.206 33.904C119.894 33.936 118.902 33.968 118.23 34V32.992C119.35 32.992 120.134 32.752 120.582 32.272C121.062 31.792 121.302 30.88 121.302 29.536V14.416C121.302 12.976 121.078 11.92 120.63 11.248C120.214 10.544 119.414 10.192 118.23 10.192V9.18399C119.254 9.27999 120.246 9.32799 121.206 9.32799C122.55 9.32799 123.798 9.27999 124.95 9.18399C126.134 9.05599 127.222 8.87999 128.214 8.65599V13.12C128.598 12.256 129.11 11.472 129.75 10.768C130.39 10.064 131.126 9.51999 131.958 9.13599C132.79 8.71999 133.718 8.51199 134.742 8.51199Z" fill="#141414"/>
<path d="M147.26 34.336C145.82 34.336 144.62 34.064 143.66 33.52C142.7 32.976 141.996 32.256 141.548 31.36C141.1 30.432 140.876 29.424 140.876 28.336C140.876 26.96 141.18 25.84 141.788 24.976C142.428 24.112 143.244 23.408 144.236 22.864C145.228 22.32 146.268 21.872 147.356 21.52C148.476 21.168 149.532 20.832 150.524 20.512C151.548 20.16 152.364 19.76 152.972 19.312C153.612 18.832 153.932 18.224 153.932 17.488V13.744C153.932 12.912 153.788 12.176 153.5 11.536C153.244 10.864 152.828 10.352 152.252 9.99999C151.708 9.64799 150.988 9.47199 150.092 9.47199C149.452 9.47199 148.812 9.56799 148.172 9.75999C147.532 9.91999 147.004 10.208 146.588 10.624C147.484 10.944 148.172 11.44 148.652 12.112C149.164 12.752 149.42 13.488 149.42 14.32C149.42 15.408 149.036 16.272 148.268 16.912C147.532 17.552 146.652 17.872 145.628 17.872C144.476 17.872 143.596 17.52 142.988 16.816C142.412 16.08 142.124 15.2 142.124 14.176C142.124 13.248 142.348 12.48 142.796 11.872C143.276 11.264 143.932 10.688 144.764 10.144C145.66 9.63199 146.732 9.23199 147.98 8.94399C149.26 8.65599 150.636 8.51199 152.108 8.51199C153.58 8.51199 154.908 8.67199 156.092 8.99199C157.276 9.27999 158.268 9.82399 159.068 10.624C159.804 11.36 160.284 12.272 160.508 13.36C160.732 14.416 160.844 15.76 160.844 17.392V30.448C160.844 31.248 160.924 31.808 161.084 32.128C161.244 32.416 161.516 32.56 161.9 32.56C162.188 32.56 162.46 32.48 162.716 32.32C163.004 32.16 163.308 31.968 163.628 31.744L164.108 32.56C163.436 33.136 162.652 33.584 161.756 33.904C160.892 34.192 159.916 34.336 158.828 34.336C157.644 34.336 156.7 34.176 155.996 33.856C155.292 33.504 154.78 33.04 154.46 32.464C154.172 31.888 154.028 31.216 154.028 30.448C153.26 31.664 152.332 32.624 151.244 33.328C150.156 34 148.828 34.336 147.26 34.336ZM150.668 31.264C151.308 31.264 151.884 31.12 152.396 30.832C152.94 30.512 153.452 30 153.932 29.296V19.456C153.644 19.936 153.244 20.368 152.732 20.752C152.22 21.136 151.676 21.536 151.1 21.952C150.524 22.336 149.964 22.768 149.42 23.248C148.908 23.728 148.492 24.32 148.172 25.024C147.852 25.728 147.692 26.576 147.692 27.568C147.692 28.816 147.964 29.744 148.508 30.352C149.052 30.96 149.772 31.264 150.668 31.264Z" fill="#141414"/>
</svg>
